<svg width="17" height="16" viewBox="0 0 17 16" fill="none" xmlns="http://www.w3.org/2000/svg">
<path d="M3.78542 13.9192C3.78542 12.9815 2.99866 12.1952 2.06217 12.1952C1.12569 12.1952 0.338867 12.9815 0.338867 13.9192C0.338867 14.857 1.12569 15.6433 2.06217 15.6433C2.99866 15.6433 3.78542 14.857 3.78542 13.9192Z" fill="black"/>
<path d="M3.78542 7.85729C3.78542 6.91958 2.99866 6.13324 2.06217 6.13324C1.12569 6.13324 0.338867 6.91958 0.338867 7.85729C0.338868 8.79501 1.12569 9.58129 2.06217 9.58129C2.99866 9.58129 3.78542 8.79501 3.78542 7.85729Z" fill="black"/>
<path d="M3.78542 1.79541C3.78542 0.857694 2.99866 0.0714113 2.06217 0.0714111C1.12569 0.0714113 0.338867 0.857694 0.338867 1.79541C0.338867 2.73312 1.12569 3.51946 2.06217 3.51946C2.99866 3.51946 3.78542 2.73312 3.78542 1.79541Z" fill="black"/>
<path d="M6.27062 0.490601C6.10679 0.490602 5.94455 0.524354 5.79319 0.58993C5.64183 0.655506 5.5043 0.751621 5.38845 0.872788C5.27261 0.993955 5.18071 1.1378 5.11802 1.29611C5.05533 1.45442 5.02306 1.6241 5.02307 1.79545C5.02307 2.1415 5.15451 2.47337 5.38847 2.71807C5.62243 2.96276 5.93975 3.10023 6.27062 3.10024H15.6237C15.7876 3.10024 15.9498 3.0665 16.1012 3.00093C16.2525 2.93536 16.3901 2.83925 16.5059 2.71809C16.6218 2.59693 16.7137 2.45309 16.7764 2.29478C16.8391 2.13647 16.8713 1.9668 16.8713 1.79545C16.8713 1.62409 16.8391 1.45441 16.7764 1.2961C16.7137 1.13778 16.6218 0.993934 16.5059 0.872767C16.3901 0.751599 16.2525 0.655485 16.1012 0.589912C15.9498 0.52434 15.7876 0.490594 15.6237 0.490601H6.27062Z" fill="black"/>
<path d="M6.27062 6.55249C5.93975 6.55249 5.62243 6.68996 5.38847 6.93466C5.15451 7.17935 5.02307 7.51123 5.02307 7.85728C5.02307 8.20333 5.15451 8.5352 5.38847 8.7799C5.62243 9.02459 5.93975 9.16206 6.27062 9.16206H15.6237C15.7876 9.16207 15.9498 9.12833 16.1012 9.06276C16.2525 8.99719 16.3901 8.90108 16.5059 8.77992C16.6218 8.65876 16.7137 8.51492 16.7764 8.35661C16.8391 8.1983 16.8713 8.02863 16.8713 7.85728C16.8713 7.68593 16.8391 7.51625 16.7764 7.35794C16.7137 7.19964 16.6218 7.0558 16.5059 6.93463C16.3901 6.81347 16.2525 6.71736 16.1012 6.6518C15.9498 6.58623 15.7876 6.55248 15.6237 6.55249H6.27062Z" fill="black"/>
<path d="M6.27062 12.6144C5.93975 12.6144 5.62243 12.7519 5.38847 12.9966C5.15451 13.2413 5.02307 13.5732 5.02307 13.9192C5.02307 14.2653 5.15451 14.5972 5.38847 14.8418C5.62243 15.0865 5.93975 15.224 6.27062 15.224H15.6237C15.7876 15.224 15.9498 15.1903 16.1012 15.1247C16.2525 15.0591 16.3901 14.963 16.5059 14.8419C16.6218 14.7207 16.7137 14.5769 16.7764 14.4186C16.8391 14.2603 16.8713 14.0906 16.8713 13.9192C16.8713 13.7479 16.8391 13.5782 16.7764 13.4199C16.7137 13.2616 16.6218 13.1177 16.5059 12.9966C16.3901 12.8754 16.2525 12.7793 16.1012 12.7137C15.9498 12.6482 15.7876 12.6144 15.6237 12.6144H6.27062Z" fill="black"/>
</svg>
