<svg width="34" height="32" viewBox="0 0 34 32" fill="none" xmlns="http://www.w3.org/2000/svg">
<path d="M16.2807 0.715869C16.58 -0.205442 17.8834 -0.205441 18.1828 0.715869L21.4015 10.6221C21.5354 11.0341 21.9193 11.3131 22.3526 11.3131H32.7686C33.7373 11.3131 34.1401 12.5527 33.3564 13.1221L24.9296 19.2445C24.5791 19.4992 24.4325 19.9505 24.5664 20.3626L27.7851 30.2688C28.0844 31.1901 27.03 31.9562 26.2463 31.3868L17.8195 25.2644C17.469 25.0098 16.9944 25.0098 16.6439 25.2644L8.21716 31.3868C7.43345 31.9562 6.37897 31.1901 6.67832 30.2688L9.89706 20.3626C10.0309 19.9505 9.88427 19.4992 9.53379 19.2445L1.10703 13.1221C0.323312 12.5527 0.726088 11.3131 1.69481 11.3131H12.1109C12.5441 11.3131 12.928 11.0341 13.0619 10.6221L16.2807 0.715869Z" fill="#FECE32"/>
</svg>
